<?xml version="1.0" encoding="UTF-8" standalone="no"?>
<!DOCTYPE svg PUBLIC "-//W3C//DTD SVG 1.1//EN" "http://www.w3.org/Graphics/SVG/1.1/DTD/svg11.dtd">
<svg width="100%" height="100%" viewBox="0 0 300 300" version="1.1" xmlns="http://www.w3.org/2000/svg" xmlns:xlink="http://www.w3.org/1999/xlink" xml:space="preserve" xmlns:serif="http://www.serif.com/" style="fill-rule:evenodd;clip-rule:evenodd;stroke-linejoin:round;stroke-miterlimit:2;">
    <g transform="matrix(0.571743,0,0,0.571743,64.8102,64.8102)">
        <g transform="matrix(1.05197,0,0,1.05197,-13.6056,-20.9698)">
            <circle cx="154.573" cy="161.573" r="136.427" style="fill:rgb(51,51,51);"/>
        </g>
        <g transform="matrix(0.98928,-0.146028,0.146028,0.98928,-21.7247,30.3098)">
            <path d="M82.077,41.93C82.077,41.93 155.168,8.721 211.24,42.593C267.312,76.464 313.256,136.134 224.225,215.682C222.589,142.581 175.154,104.517 109.357,110.255C117.645,82.634 117.732,30.059 82.077,41.93Z" style="fill:rgb(182,16,12);"/>
        </g>
        <path d="M101.522,124.743C101.522,124.743 115.028,86.315 90.809,42.97C88.528,31.082 217.27,70.688 219.626,173.068C219.626,173.068 196.065,130.752 106.819,132.583C103.836,125.042 101.522,124.743 101.522,124.743Z" style="fill:rgb(117,3,5);"/>
        <path d="M110.804,137.127C110.804,137.127 145.079,144.838 166.959,162.467C188.944,180.18 203.28,197.373 187.209,229.035C182.883,237.559 172.302,241.414 163.977,238.809C155.651,236.205 145.769,228.455 143.12,217.974C140.461,207.454 138.669,193.742 128.884,194.032C121.128,194.263 119.703,194.662 119.101,198.249C118.499,201.836 121.616,199.243 124.049,199.125C126.482,199.007 132.753,195.812 136.567,204.785C140.103,213.101 140.201,225.677 149,233.685C159.701,243.423 171.737,244.735 181.129,239.595C190.521,234.455 198.789,215.02 196.605,197.89C194.422,180.76 172.551,148.185 111.24,133.444C106.808,132.378 110.804,137.127 110.804,137.127Z" style="fill:rgb(144,16,13);"/>
        <g transform="matrix(-0.490734,-1.22442,1.28967,-0.516883,-91.6048,421.04)">
            <path d="M97.126,192.622L102.666,203.702L91.586,203.702L97.126,192.622Z" style="fill:rgb(144,16,13);"/>
        </g>
        <path d="M99.616,116.159L100.593,123.783C100.593,123.783 102.026,122.866 104.95,125.523C107.85,128.158 112.644,137.221 110.069,139.41C107.493,141.599 108.329,144.606 102.414,143.976C96.499,143.346 94.516,131.481 95.278,129.537C96.041,127.592 97.015,126.418 94.92,124.355C92.826,122.292 96.628,116.284 99.616,116.159Z" style="fill:rgb(144,16,13);"/>
        <g transform="matrix(1,0,0,1,-2.92408,-8.43102)">
            <path d="M107.411,142.839C107.411,142.839 107.866,154.791 114.16,155.814C120.453,156.837 119.276,155.512 122.392,153.33C125.508,151.147 123.585,147.729 119.895,150C116.206,152.271 114.525,152.316 112.747,149C110.969,145.684 109.822,143.106 109.27,140.945C106.923,140.534 107.169,140.273 107.411,142.839Z" style="fill:rgb(144,16,13);"/>
        </g>
        <g transform="matrix(0.915766,-0.0468181,-0.0294148,-0.575356,-6.29482,226.328)">
            <path d="M107.411,142.839C107.411,142.839 107.866,154.791 114.16,155.814C120.453,156.837 119.276,155.512 122.392,153.33C125.508,151.147 123.585,147.729 119.895,150C116.206,152.271 114.525,152.316 112.747,149C110.969,145.684 109.822,143.106 109.27,140.945C106.923,140.534 107.169,140.273 107.411,142.839Z" style="fill:rgb(144,16,13);"/>
        </g>
        <g transform="matrix(0.789254,0.614067,-0.614067,0.789254,105.613,-43.3971)">
            <path d="M107.411,142.839C107.411,142.839 107.866,154.791 114.16,155.814C120.453,156.837 119.276,155.512 122.392,153.33C125.508,151.147 123.585,147.729 119.895,150C116.206,152.271 114.525,152.316 112.747,149C110.969,145.684 109.822,143.106 109.27,140.945C106.923,140.534 107.169,140.273 107.411,142.839Z" style="fill:rgb(144,16,13);"/>
        </g>
        <g transform="matrix(0.481423,0.0948412,-0.0948412,0.481423,63.2934,61.5034)">
            <g transform="matrix(0.188217,-0.103647,0.103647,0.188217,-32.1448,20.4748)">
                <path d="M243.614,716.499C243.594,715.043 243.442,714.551 242.661,714.096C241.922,713.609 240.8,713.597 239.732,714.065L167.728,744.899L167.729,744.898C166.661,745.366 165.647,746.312 165.108,747.328C164.57,748.344 164.509,749.428 164.931,750.198L170.942,761.24L171.022,761.368C171.668,762.397 173.139,762.667 174.647,762.013L175.087,761.826C176.971,769.709 180.044,779.567 184.154,786.599L246.875,758.532C245.971,750.393 243.513,727.01 243.614,716.499Z" style="fill:white;"/>
            </g>
            <g transform="matrix(0.188217,-0.103647,0.103647,0.188217,-32.1448,20.4748)">
                <path d="M339.707,832.192L335.439,825.671C334.802,824.957 333.811,824.691 332.936,825.044C332.936,825.044 296.871,839.874 276.818,820.091C270.707,814.062 263.715,807.289 258.43,796.802L207.507,822.753L207.51,822.752C216.819,832.982 228.734,841.496 243.033,847.516C293.964,868.959 338.587,837.299 338.587,837.299C339.369,837.001 341.784,835.134 339.707,832.192Z" style="fill:white;"/>
            </g>
            <g transform="matrix(0.188217,-0.103647,0.103647,0.188217,-32.1448,20.4748)">
                <path d="M247.117,756.589L182.754,785.363C186.305,792.09 202.377,817.209 207.719,824.096C225.462,815.056 241.324,805.722 259.067,796.681C257.918,793.705 250.948,771.04 247.117,756.589Z" style="fill:rgb(161,161,161);"/>
            </g>
        </g>
        <path d="M82.077,41.93C82.077,41.93 155.168,8.721 211.24,42.593C267.312,76.464 317.476,159.642 228.445,239.19C215.211,174.129 223.026,78.227 82.077,41.93Z" style="fill:rgb(182,16,12);"/>
        <g transform="matrix(0.888485,-0.458906,0.458906,0.888485,-45.1864,57.5745)">
            <path d="M90.779,106.998C90.779,106.998 90.842,90.252 80.54,95.425C96.727,87.189 95.487,103.523 94.277,106.998C93.066,110.473 90.779,106.998 90.779,106.998Z" style="fill:rgb(237,145,37);"/>
        </g>
        <path d="M88.008,105.301C97.901,105.225 103.63,110.587 101.375,116.159C98.059,124.353 96.217,130.023 87.73,130.11C80.478,130.185 80.54,125.246 80.54,117.994C80.54,110.742 80.756,105.358 88.008,105.301Z" style="fill:rgb(144,16,13);"/>
        <path d="M90.779,106.998C90.779,106.998 90.842,90.252 80.54,95.425C96.727,87.189 95.487,103.523 94.277,106.998C93.066,110.473 90.779,106.998 90.779,106.998Z" style="fill:rgb(237,145,37);"/>
        <g transform="matrix(0.893806,-0.448454,0.448454,0.893806,-44.674,51.7656)">
            <ellipse cx="89.466" cy="116.933" rx="1.736" ry="0.773" style="fill:rgb(237,145,37);"/>
        </g>
        <g transform="matrix(-0.820505,0.571639,0.359149,0.515506,138.101,-8.23734)">
            <path d="M107.411,142.839C107.411,142.839 107.866,154.791 114.16,155.814C120.453,156.837 119.276,155.512 122.392,153.33C125.508,151.147 123.585,147.729 119.895,150C116.206,152.271 114.525,152.316 112.747,149C110.969,145.684 109.822,143.106 109.27,140.945C106.923,140.534 107.169,140.273 107.411,142.839Z" style="fill:rgb(144,16,13);"/>
        </g>
        <g transform="matrix(0.617164,0.786835,-0.786835,0.617164,119.981,-15.526)">
            <ellipse cx="89.466" cy="116.933" rx="1.736" ry="0.773" style="fill:rgb(38,38,38);"/>
        </g>
    </g>
</svg>
